<svg width="24" height="24" viewBox="0 0 24 24" fill="none" xmlns="http://www.w3.org/2000/svg">
<path d="M23.495 6.20498C23.3559 5.70674 23.0907 5.2528 22.725 4.88703C22.3592 4.52126 21.9052 4.25603 21.407 4.11698C19.537 3.61598 12.011 3.61598 12.011 3.61598C12.011 3.61598 4.504 3.60598 2.615 4.11698C2.11676 4.25603 1.66282 4.52126 1.29705 4.88703C0.931279 5.2528 0.666051 5.70674 0.527 6.20498C0.172521 8.11949 -0.00223935 10.0629 0.0050001 12.01C-0.000870769 13.9497 0.173884 15.8857 0.527 17.793C0.666051 18.2912 0.931279 18.7452 1.29705 19.1109C1.66282 19.4767 2.11676 19.7419 2.615 19.881C4.483 20.383 12.011 20.383 12.011 20.383C12.011 20.383 19.517 20.383 21.407 19.881C21.9052 19.7419 22.3592 19.4767 22.725 19.1109C23.0907 18.7452 23.3559 18.2912 23.495 17.793C23.8407 15.885 24.0081 13.949 23.995 12.01C24.0095 10.0636 23.8421 8.12018 23.495 6.20498ZM9.609 15.601V8.40798L15.873 12.01L9.609 15.601Z" fill="#FF0000"/>
</svg>
